<svg xmlns="http://www.w3.org/2000/svg" xmlns:xlink="http://www.w3.org/1999/xlink" width="64" height="64" viewBox="0 0 64 64">
  <defs>
    <style>
      .cls-1 {
        fill: #3c4042;
        fill-rule: evenodd;
        filter: url(#filter);
      }
    </style>
    <filter id="filter" x="272" y="922" width="64" height="64" filterUnits="userSpaceOnUse">
      <feFlood result="flood" flood-color="#3bbbcd"/>
      <feComposite result="composite" operator="in" in2="SourceGraphic"/>
      <feBlend result="blend" in2="SourceGraphic"/>
    </filter>
  </defs>
  <path id="_16-interior_-_sofa_chair" data-name="16-interior - sofa chair" class="cls-1" d="M331.585,960.29A3.93,3.93,0,0,1,332,962v16a4,4,0,0,1-4,4h-2v4h-4v-4H286v4h-4v-4h-2a4,4,0,0,1-4-4V962a3.93,3.93,0,0,1,.414-1.705A10,10,0,0,1,280,942.2v-0.2a20,20,0,0,1,20-20h8a20,20,0,0,1,20,20v0.2A10,10,0,0,1,331.585,960.29ZM280,976a2,2,0,0,0,2,2h44a2,2,0,0,0,2-2v-2H280v2Zm48-6v-6a2,2,0,0,0-2-2,9.93,9.93,0,0,1-5.442-1.627,58.928,58.928,0,0,0-33.122,0A9.931,9.931,0,0,1,282,962a2,2,0,0,0-2,2v6h48Zm-52-18a6,6,0,1,0,6-6A6,6,0,0,0,276,952Zm48-10a16,16,0,0,0-16-16h-8a16,16,0,0,0-16,16v0.2a10,10,0,0,1,8,9.8,9.9,9.9,0,0,1-.587,3.249,64.423,64.423,0,0,1,25.168-.014A9.893,9.893,0,0,1,316,952a10,10,0,0,1,8-9.8v-0.2Zm2,4a6,6,0,1,0,6,6A6,6,0,0,0,326,946Z" transform="translate(-272 -922)"/>
</svg>
