<svg xmlns="http://www.w3.org/2000/svg" xmlns:xlink="http://www.w3.org/1999/xlink" width="64" height="64" viewBox="0 0 64 64">
  <defs>
    <style>
      .cls-1 {
        fill: #3c4042;
        fill-rule: evenodd;
        filter: url(#filter);
      }
    </style>
    <filter id="filter" x="1071" y="926" width="64" height="64" filterUnits="userSpaceOnUse">
      <feFlood result="flood" flood-color="#3bbbcd"/>
      <feComposite result="composite" operator="in" in2="SourceGraphic"/>
      <feBlend result="blend" in2="SourceGraphic"/>
    </filter>
  </defs>
  <path id="_17-time_-_clock_hour" data-name="17-time - clock hour" class="cls-1" d="M1127,989.994h-48a8,8,0,0,1-8-8v-48a8,8,0,0,1,8-8h48a8,8,0,0,1,8,8v48A8,8,0,0,1,1127,989.994Zm4-28h-6a2,2,0,0,1,0-4h6v-24a3.637,3.637,0,0,0-.18-0.87l-4.22,4.226a2.092,2.092,0,1,1-2.96-2.956l4.23-4.225a3.837,3.837,0,0,0-.87-0.175h-20v6a2,2,0,1,1-4,0v-6h-24a3.837,3.837,0,0,0-.87.175l4.23,4.225a2.092,2.092,0,1,1-2.96,2.956l-4.23-4.226a4.188,4.188,0,0,0-.17.87v24h6a2,2,0,0,1,0,4h-6v20a4.178,4.178,0,0,0,.17.869l4.29-4.291a2.092,2.092,0,1,1,2.96,2.956l-4.29,4.29a3.838,3.838,0,0,0,.87.176h24v-6a2,2,0,0,1,4,0v6h20a3.838,3.838,0,0,0,.87-0.176l-4.29-4.29a2.088,2.088,0,1,1,2.95-2.956l4.29,4.291a3.629,3.629,0,0,0,.18-0.869v-20Zm-26,0h-12a2,2,0,0,1,0-4h10V948a2,2,0,1,1,4,0v12A2,2,0,0,1,1105,961.994Z" transform="translate(-1071 -926)"/>
</svg>
